<?xml version="1.0" standalone="no"?>
<!DOCTYPE svg PUBLIC "-//W3C//DTD SVG 20010904//EN"
 "http://www.w3.org/TR/2001/REC-SVG-20010904/DTD/svg10.dtd">
<svg version="1.0" xmlns="http://www.w3.org/2000/svg"
 width="300.000000pt" height="300.000000pt" viewBox="0 0 300.000000 300.000000"
 preserveAspectRatio="xMidYMid meet">
<metadata>
Created by potrace 1.10, written by Peter Selinger 2001-2011
</metadata>
<g transform="translate(0.000000,300.000000) scale(0.100000,-0.100000)"
fill="#000000" stroke="none">
<path d="M1341 2079 c-146 -42 -256 -121 -336 -239 -75 -110 -100 -196 -100
-340 0 -144 25 -230 100 -340 83 -122 203 -204 356 -245 90 -24 236 -17 334
16 190 63 336 224 390 430 23 90 17 237 -16 333 -47 140 -166 279 -294 341
-134 66 -303 83 -434 44z m244 -13 c75 -7 157 -35 149 -49 -4 -7 -4 -9 1 -5
15 14 101 -41 163 -103 91 -93 151 -203 168 -309 6 -37 5 -149 -1 -195 -17
-126 -102 -268 -218 -362 -15 -13 -29 -23 -32 -23 -3 0 -22 -11 -43 -23 -46
-29 -128 -57 -185 -63 -23 -2 -52 -7 -64 -9 -57 -13 -246 36 -323 84 -136 83
-237 232 -266 391 -21 115 8 289 62 372 13 21 24 41 24 46 0 4 28 37 62 71 70
71 163 135 180 125 7 -5 8 -2 3 6 -6 10 -4 12 9 7 10 -4 15 -3 11 3 -3 5 7 12
22 15 15 3 44 10 63 15 19 6 51 11 70 13 35 3 53 2 145 -7z"/>
<path d="M1302 1818 c-15 -15 -17 -605 -3 -627 18 -28 22 51 19 342 -2 158 -2
287 -1 287 1 0 37 -21 80 -47 164 -97 457 -263 465 -263 4 0 8 -4 8 -10 0 -5
-4 -10 -9 -10 -9 0 -425 -237 -506 -288 -54 -34 -26 -42 34 -11 25 13 48 26
51 29 3 3 16 11 30 18 14 6 32 16 40 22 8 5 87 51 175 101 88 50 168 98 178
107 31 27 20 49 -44 92 -33 22 -63 40 -66 40 -3 0 -25 14 -50 30 -24 17 -49
30 -55 30 -6 0 -19 6 -27 14 -9 7 -36 24 -61 37 -25 13 -60 35 -77 48 -18 13
-33 21 -33 17 0 -3 -22 8 -49 24 -52 32 -80 37 -99 18z"/>
</g>
</svg>
